<svg width="403" height="154" viewBox="0 0 403 154" fill="none" xmlns="http://www.w3.org/2000/svg">
<path d="M2.20312 2.4375H9.85938V3.76562L7.46875 4.125V13.0469H20.5156V4.125L18.1406 3.76562V2.4375H25.7969V3.76562L23.4375 4.125V24.3125L25.7969 24.6719V26H18.1406V24.6719L20.5156 24.3125V14.9219H7.46875V24.3125L9.85938 24.6719V26H2.20312V24.6719L4.57812 24.3125V4.125L2.20312 3.76562V2.4375ZM43.2812 25.1875C41.7604 25.9688 40.6615 26.3594 39.9844 26.3594C38.4635 26.3594 37.7031 25.7135 37.7031 24.4219V23.9375C37.5573 24.1562 37.1562 24.474 36.5 24.8906C35.8542 25.3073 35.349 25.599 34.9844 25.7656C34.1198 26.1615 33.4635 26.3594 33.0156 26.3594C32.5677 26.3594 32.1979 26.3385 31.9062 26.2969C31.6146 26.2656 31.3125 26.1979 31 26.0938C30.6875 25.9896 30.3802 25.8438 30.0781 25.6562C29.776 25.4688 29.5052 25.224 29.2656 24.9219C28.7344 24.2552 28.4688 23.3854 28.4688 22.3125C28.4688 20.8333 28.9948 19.8021 30.0469 19.2188C30.7135 18.8333 31.4167 18.5938 32.1562 18.5C32.9062 18.4062 33.5885 18.3333 34.2031 18.2812C35.3698 18.1771 36.5365 18.1146 37.7031 18.0938V14.8125C37.7031 13.9062 37.5885 13.3021 37.3594 13C36.974 12.4688 36.375 12.2031 35.5625 12.2031C33.75 12.2031 31.9688 12.7917 30.2188 13.9688L29.3125 12.6094C31.75 10.9844 33.9323 10.1719 35.8594 10.1719C37.5365 10.1719 38.724 10.6354 39.4219 11.5625C39.9635 12.2812 40.2344 13.3021 40.2344 14.625V22.8438C40.2344 23.6146 40.3802 24.0521 40.6719 24.1562C40.776 24.1875 40.9115 24.2031 41.0781 24.2031C41.4948 24.2031 42.1354 24.0417 43 23.7188L43.2812 25.1875ZM37.7031 19.4062C34.7448 19.5208 32.849 19.8177 32.0156 20.2969C31.3802 20.6615 31.0625 21.25 31.0625 22.0625C31.0625 23.2396 31.5156 23.9635 32.4219 24.2344C32.6719 24.3073 32.974 24.3438 33.3281 24.3438C33.6927 24.3438 34.1146 24.2708 34.5938 24.125C35.0729 23.9792 35.5156 23.8021 35.9219 23.5938C36.6927 23.2188 37.2865 22.8542 37.7031 22.5V19.4062ZM52.3594 26H50.1875L44.3281 12.2031L42.9219 11.8438V10.5469H49V11.8438L47.2031 12.2031L51.8594 23.4688L56.25 12.125L54.4844 11.8438V10.5469H59.5625V11.8438L58.1562 12.2031L52.3594 26ZM73.1719 22.4219L74.0625 23.4375C72.4062 24.9271 70.8021 25.8594 69.25 26.2344C68.9062 26.3177 68.5677 26.3594 68.2344 26.3594C65.9427 26.3594 64.0781 25.6354 62.6406 24.1875C61.2135 22.7708 60.5 20.9219 60.5 18.6406C60.5 16.3698 61.1719 14.4271 62.5156 12.8125C63.9948 11.0521 65.9167 10.1719 68.2812 10.1719C69.9167 10.1719 71.2969 10.7604 72.4219 11.9375C73.6198 13.1667 74.2188 14.7656 74.2188 16.7344L73.4844 17.3906L63.2969 18.125C63.3177 20.0208 63.9323 21.5365 65.1406 22.6719C66.224 23.6719 67.4844 24.1719 68.9219 24.1719C70.3594 24.1719 71.776 23.5885 73.1719 22.4219ZM63.4062 16.6562L71.4375 15.9219C71.3646 14.1927 70.6979 13.0052 69.4375 12.3594C68.9896 12.1302 68.4167 12.0156 67.7188 12.0156C67.0208 12.0156 66.3958 12.1875 65.8438 12.5312C65.3021 12.875 64.8542 13.2917 64.5 13.7812C63.8229 14.7083 63.4583 15.6667 63.4062 16.6562ZM91.375 21.2188C91.375 23.3021 92.2188 24.3438 93.9062 24.3438C94.7917 24.3438 95.651 23.9792 96.4844 23.25L97.3281 24.2812C96.4427 25.0104 95.625 25.5417 94.875 25.875C94.125 26.1979 93.4635 26.3594 92.8906 26.3594C92.3177 26.3594 91.7604 26.2344 91.2188 25.9844C90.6875 25.7344 90.2448 25.375 89.8906 24.9062C89.1927 24 88.8438 22.7135 88.8438 21.0469V12.375H86.8594V11.0156L88.8438 10.5469V8.45312L90.6875 6.60938H91.375V10.5469H96.5312V12.375H91.375V21.2188ZM107.344 12.2031C105.771 12.2031 104.146 12.7552 102.469 13.8594V24.3438L104.453 24.7031V26H97.8906V24.7031L99.9219 24.3438V2.82812L97.8906 2.4375V1.17188L102.469 0.015625V12.2031C103.51 11.4844 104.531 10.9688 105.531 10.6562C106.542 10.3333 107.401 10.1719 108.109 10.1719C108.818 10.1719 109.453 10.2708 110.016 10.4688C110.578 10.6667 111.057 10.9688 111.453 11.375C112.286 12.2188 112.703 13.4271 112.703 15V24.3438L114.688 24.7031V26H108.141V24.7031L110.156 24.3438V15.2969C110.156 13.2344 109.219 12.2031 107.344 12.2031ZM129.297 22.4219L130.188 23.4375C128.531 24.9271 126.927 25.8594 125.375 26.2344C125.031 26.3177 124.693 26.3594 124.359 26.3594C122.068 26.3594 120.203 25.6354 118.766 24.1875C117.339 22.7708 116.625 20.9219 116.625 18.6406C116.625 16.3698 117.297 14.4271 118.641 12.8125C120.12 11.0521 122.042 10.1719 124.406 10.1719C126.042 10.1719 127.422 10.7604 128.547 11.9375C129.745 13.1667 130.344 14.7656 130.344 16.7344L129.609 17.3906L119.422 18.125C119.443 20.0208 120.057 21.5365 121.266 22.6719C122.349 23.6719 123.609 24.1719 125.047 24.1719C126.484 24.1719 127.901 23.5885 129.297 22.4219ZM119.531 16.6562L127.562 15.9219C127.49 14.1927 126.823 13.0052 125.562 12.3594C125.115 12.1302 124.542 12.0156 123.844 12.0156C123.146 12.0156 122.521 12.1875 121.969 12.5312C121.427 12.875 120.979 13.2917 120.625 13.7812C119.948 14.7083 119.583 15.6667 119.531 16.6562ZM156.203 22.4219L157.094 23.4375C155.438 24.9271 153.833 25.8594 152.281 26.2344C151.938 26.3177 151.599 26.3594 151.266 26.3594C148.984 26.3594 147.141 25.6354 145.734 24.1875C144.37 22.7812 143.688 20.9323 143.688 18.6406C143.688 16.349 144.37 14.4062 145.734 12.8125C147.255 11.0521 149.297 10.1719 151.859 10.1719C153.568 10.1719 155.078 10.4531 156.391 11.0156L156.016 14.1562H155.031C155.031 13.1042 154.401 12.4375 153.141 12.1562C152.745 12.0625 152.193 12.0156 151.484 12.0156C150.776 12.0156 150.078 12.1823 149.391 12.5156C148.714 12.8385 148.156 13.2708 147.719 13.8125C146.854 14.8854 146.422 16.1979 146.422 17.75C146.422 19.6562 146.891 21.1823 147.828 22.3281C148.839 23.5573 150.135 24.1719 151.719 24.1719C153.312 24.1719 154.807 23.5885 156.203 22.4219ZM159.812 18.4062C159.812 17.2083 160.016 16.0938 160.422 15.0625C160.839 14.0312 161.401 13.1562 162.109 12.4375C163.568 10.9271 165.365 10.1719 167.5 10.1719C169.979 10.1719 171.917 10.9062 173.312 12.375C174.635 13.7812 175.297 15.6198 175.297 17.8906C175.297 20.4219 174.547 22.4792 173.047 24.0625C171.589 25.5938 169.786 26.3594 167.641 26.3594C165.193 26.3594 163.255 25.6042 161.828 24.0938C160.484 22.6771 159.812 20.7812 159.812 18.4062ZM163.812 13.75C163.396 14.2812 163.078 14.9062 162.859 15.625C162.651 16.3438 162.547 17.125 162.547 17.9688C162.547 18.8021 162.641 19.6198 162.828 20.4219C163.026 21.2135 163.328 21.9167 163.734 22.5312C164.63 23.8646 165.922 24.5312 167.609 24.5312C169.193 24.5312 170.422 24.0104 171.297 22.9688C172.161 21.9479 172.594 20.5677 172.594 18.8281C172.594 15.7448 171.714 13.6719 169.953 12.6094C169.297 12.2135 168.521 12.0156 167.625 12.0156C166.729 12.0156 165.974 12.1719 165.359 12.4844C164.745 12.7865 164.229 13.2083 163.812 13.75ZM194.516 25.3438C193.38 26.0208 192.474 26.3594 191.797 26.3594C191.151 26.3594 190.672 26.2292 190.359 25.9688C189.797 25.5312 189.516 25.0156 189.516 24.4219V24.2031C188.62 24.9635 187.693 25.5156 186.734 25.8594C185.776 26.1927 184.938 26.3594 184.219 26.3594C182.76 26.3594 181.615 25.9635 180.781 25.1719C179.958 24.3698 179.547 23.1615 179.547 21.5469V12.9688L177.688 12.6562V11.2812L182.078 10.1719V21.5469C182.078 22.4844 182.401 23.2083 183.047 23.7188C183.578 24.1354 184.203 24.3438 184.922 24.3438C186.099 24.3438 187.203 24.0312 188.234 23.4062C188.703 23.1354 189.13 22.8177 189.516 22.4531V12.9688L187.156 12.6562V11.3594L192.047 10.1719V23.3594C192.047 23.9219 192.328 24.2031 192.891 24.2031C193.286 24.2031 193.719 24.0938 194.188 23.875L194.516 25.3438ZM198.203 12.9688L196.203 12.6094V11.3125L200.734 10.1719V14.1562C203.13 11.5 204.932 10.1719 206.141 10.1719C207.13 10.1719 208.042 10.5677 208.875 11.3594L208.062 13.8906H207.328C207.328 13.3802 206.938 13 206.156 12.75C205.938 12.6875 205.719 12.6562 205.5 12.6562C204.396 12.6562 202.807 13.7656 200.734 15.9844V24.3438L203.828 24.7031V26H196.203V24.7031L198.203 24.3438V12.9688ZM223.875 25.1875C222.354 25.9688 221.255 26.3594 220.578 26.3594C219.057 26.3594 218.297 25.7135 218.297 24.4219V23.9375C218.151 24.1562 217.75 24.474 217.094 24.8906C216.448 25.3073 215.943 25.599 215.578 25.7656C214.714 26.1615 214.057 26.3594 213.609 26.3594C213.161 26.3594 212.792 26.3385 212.5 26.2969C212.208 26.2656 211.906 26.1979 211.594 26.0938C211.281 25.9896 210.974 25.8438 210.672 25.6562C210.37 25.4688 210.099 25.224 209.859 24.9219C209.328 24.2552 209.062 23.3854 209.062 22.3125C209.062 20.8333 209.589 19.8021 210.641 19.2188C211.307 18.8333 212.01 18.5938 212.75 18.5C213.5 18.4062 214.182 18.3333 214.797 18.2812C215.964 18.1771 217.13 18.1146 218.297 18.0938V14.8125C218.297 13.9062 218.182 13.3021 217.953 13C217.568 12.4688 216.969 12.2031 216.156 12.2031C214.344 12.2031 212.562 12.7917 210.812 13.9688L209.906 12.6094C212.344 10.9844 214.526 10.1719 216.453 10.1719C218.13 10.1719 219.318 10.6354 220.016 11.5625C220.557 12.2812 220.828 13.3021 220.828 14.625V22.8438C220.828 23.6146 220.974 24.0521 221.266 24.1562C221.37 24.1875 221.505 24.2031 221.672 24.2031C222.089 24.2031 222.729 24.0417 223.594 23.7188L223.875 25.1875ZM218.297 19.4062C215.339 19.5208 213.443 19.8177 212.609 20.2969C211.974 20.6615 211.656 21.25 211.656 22.0625C211.656 23.2396 212.109 23.9635 213.016 24.2344C213.266 24.3073 213.568 24.3438 213.922 24.3438C214.286 24.3438 214.708 24.2708 215.188 24.125C215.667 23.9792 216.109 23.8021 216.516 23.5938C217.286 23.2188 217.88 22.8542 218.297 22.5V19.4062ZM238.453 12.8281C238.943 13.6198 239.188 14.6042 239.188 15.7812C239.188 17.4375 238.354 18.9062 236.688 20.1875C235.958 20.75 235.104 21.2188 234.125 21.5938L231.734 22.5C230.589 22.9271 229.938 23.224 229.781 23.3906C229.635 23.5469 229.562 23.6771 229.562 23.7812C229.562 23.875 229.615 23.9688 229.719 24.0625C229.823 24.1562 229.995 24.2448 230.234 24.3281C230.807 24.526 231.609 24.625 232.641 24.625C233.672 24.625 234.635 24.6823 235.531 24.7969C236.427 24.901 237.219 25.1042 237.906 25.4062C239.406 26.0833 240.156 27.2396 240.156 28.875C240.156 29.9792 239.724 31.0052 238.859 31.9531C237.661 33.2552 235.964 34.125 233.766 34.5625C233.109 34.6875 232.385 34.75 231.594 34.75C230.802 34.75 229.995 34.6667 229.172 34.5C228.349 34.3333 227.63 34.0729 227.016 33.7188C225.714 32.9792 225.062 31.8698 225.062 30.3906C225.062 29.2448 225.547 28.3646 226.516 27.75L227.531 27.1406C227.812 26.9948 228.125 26.8854 228.469 26.8125C228.823 26.7396 229.177 26.6562 229.531 26.5625C228.406 26.3438 227.63 25.8958 227.203 25.2188C227.057 24.9792 226.984 24.7292 226.984 24.4688C226.984 24.1979 227.036 23.9688 227.141 23.7812C227.245 23.5938 227.432 23.4062 227.703 23.2188C227.974 23.0312 228.349 22.8229 228.828 22.5938L230.688 21.7188C229.708 21.5312 228.792 21.0781 227.938 20.3594C226.76 19.3698 226.172 17.974 226.172 16.1719C226.172 14.4427 226.932 12.9792 228.453 11.7812C229.797 10.7083 231.276 10.1719 232.891 10.1719C234.505 10.1719 235.901 10.5521 237.078 11.3125C237.828 10.7917 239.068 10.4219 240.797 10.2031L241.219 10.6875L240.484 12.8281H238.453ZM227.891 29.4844C227.828 29.776 227.797 30.1406 227.797 30.5781C227.797 31.0156 227.958 31.4167 228.281 31.7812C228.604 32.1562 229.016 32.4427 229.516 32.6406C230.328 32.9635 231.245 33.125 232.266 33.125C233.297 33.125 234.083 33.0417 234.625 32.875C235.167 32.7083 235.641 32.4688 236.047 32.1562C236.964 31.4688 237.422 30.5729 237.422 29.4688C237.422 28.0833 236.443 27.3021 234.484 27.125C233.911 27.0729 233.312 27.0469 232.688 27.0469C230.896 27.0469 229.474 27.5729 228.422 28.625C228.13 28.9167 227.953 29.2031 227.891 29.4844ZM229.078 13.875C228.859 14.3854 228.75 15.0104 228.75 15.75C228.75 16.4792 228.859 17.1146 229.078 17.6562C229.297 18.1979 229.594 18.6562 229.969 19.0312C230.729 19.7917 231.708 20.1719 232.906 20.1719C234.469 20.1719 235.583 19.5156 236.25 18.2031C236.5 17.7135 236.625 17.1094 236.625 16.3906C236.625 15.6615 236.516 15.0156 236.297 14.4531C236.078 13.8906 235.781 13.4115 235.406 13.0156C234.625 12.1927 233.646 11.7812 232.469 11.7812C230.802 11.7812 229.672 12.4792 229.078 13.875ZM256.453 22.4219L257.344 23.4375C255.688 24.9271 254.083 25.8594 252.531 26.2344C252.188 26.3177 251.849 26.3594 251.516 26.3594C249.224 26.3594 247.359 25.6354 245.922 24.1875C244.495 22.7708 243.781 20.9219 243.781 18.6406C243.781 16.3698 244.453 14.4271 245.797 12.8125C247.276 11.0521 249.198 10.1719 251.562 10.1719C253.198 10.1719 254.578 10.7604 255.703 11.9375C256.901 13.1667 257.5 14.7656 257.5 16.7344L256.766 17.3906L246.578 18.125C246.599 20.0208 247.214 21.5365 248.422 22.6719C249.505 23.6719 250.766 24.1719 252.203 24.1719C253.641 24.1719 255.057 23.5885 256.453 22.4219ZM246.688 16.6562L254.719 15.9219C254.646 14.1927 253.979 13.0052 252.719 12.3594C252.271 12.1302 251.698 12.0156 251 12.0156C250.302 12.0156 249.677 12.1875 249.125 12.5312C248.583 12.875 248.135 13.2917 247.781 13.7812C247.104 14.7083 246.74 15.6667 246.688 16.6562ZM274.656 21.2188C274.656 23.3021 275.5 24.3438 277.188 24.3438C278.073 24.3438 278.932 23.9792 279.766 23.25L280.609 24.2812C279.724 25.0104 278.906 25.5417 278.156 25.875C277.406 26.1979 276.745 26.3594 276.172 26.3594C275.599 26.3594 275.042 26.2344 274.5 25.9844C273.969 25.7344 273.526 25.375 273.172 24.9062C272.474 24 272.125 22.7135 272.125 21.0469V12.375H270.141V11.0156L272.125 10.5469V8.45312L273.969 6.60938H274.656V10.5469H279.812V12.375H274.656V21.2188ZM281.688 18.4062C281.688 17.2083 281.891 16.0938 282.297 15.0625C282.714 14.0312 283.276 13.1562 283.984 12.4375C285.443 10.9271 287.24 10.1719 289.375 10.1719C291.854 10.1719 293.792 10.9062 295.188 12.375C296.51 13.7812 297.172 15.6198 297.172 17.8906C297.172 20.4219 296.422 22.4792 294.922 24.0625C293.464 25.5938 291.661 26.3594 289.516 26.3594C287.068 26.3594 285.13 25.6042 283.703 24.0938C282.359 22.6771 281.688 20.7812 281.688 18.4062ZM285.688 13.75C285.271 14.2812 284.953 14.9062 284.734 15.625C284.526 16.3438 284.422 17.125 284.422 17.9688C284.422 18.8021 284.516 19.6198 284.703 20.4219C284.901 21.2135 285.203 21.9167 285.609 22.5312C286.505 23.8646 287.797 24.5312 289.484 24.5312C291.068 24.5312 292.297 24.0104 293.172 22.9688C294.036 21.9479 294.469 20.5677 294.469 18.8281C294.469 15.7448 293.589 13.6719 291.828 12.6094C291.172 12.2135 290.396 12.0156 289.5 12.0156C288.604 12.0156 287.849 12.1719 287.234 12.4844C286.62 12.7865 286.104 13.2083 285.688 13.75ZM314.906 24.2812L318.297 24.7031V26H310.219V24.7031L312.375 24.3438V12.3125H310.219V11.0156L312.375 10.5469V7.23438C312.375 5.59896 312.88 4.04167 313.891 2.5625C315.047 0.864583 316.562 0.015625 318.438 0.015625C319.635 0.015625 320.615 0.255208 321.375 0.734375C321.708 0.942708 321.958 1.18229 322.125 1.45312L321.062 4.21875H320.047C320.047 3.17708 319.682 2.46875 318.953 2.09375C318.693 1.94792 318.359 1.875 317.953 1.875C317.557 1.875 317.172 1.96354 316.797 2.14062C316.432 2.30729 316.109 2.56771 315.828 2.92188C315.214 3.69271 314.906 4.77083 314.906 6.15625V10.5469H319.656V12.375H314.906V24.2812ZM321.844 18.4062C321.844 17.2083 322.047 16.0938 322.453 15.0625C322.87 14.0312 323.432 13.1562 324.141 12.4375C325.599 10.9271 327.396 10.1719 329.531 10.1719C332.01 10.1719 333.948 10.9062 335.344 12.375C336.667 13.7812 337.328 15.6198 337.328 17.8906C337.328 20.4219 336.578 22.4792 335.078 24.0625C333.62 25.5938 331.818 26.3594 329.672 26.3594C327.224 26.3594 325.286 25.6042 323.859 24.0938C322.516 22.6771 321.844 20.7812 321.844 18.4062ZM325.844 13.75C325.427 14.2812 325.109 14.9062 324.891 15.625C324.682 16.3438 324.578 17.125 324.578 17.9688C324.578 18.8021 324.672 19.6198 324.859 20.4219C325.057 21.2135 325.359 21.9167 325.766 22.5312C326.661 23.8646 327.953 24.5312 329.641 24.5312C331.224 24.5312 332.453 24.0104 333.328 22.9688C334.193 21.9479 334.625 20.5677 334.625 18.8281C334.625 15.7448 333.745 13.6719 331.984 12.6094C331.328 12.2135 330.552 12.0156 329.656 12.0156C328.76 12.0156 328.005 12.1719 327.391 12.4844C326.776 12.7865 326.26 13.2083 325.844 13.75ZM344.156 24.3438L346.156 24.7031V26H339.594V24.7031L341.625 24.3438V2.82812L339.594 2.4375V1.17188L344.156 0.015625V24.3438ZM352.188 24.3438L354.188 24.7031V26H347.625V24.7031L349.656 24.3438V2.82812L347.625 2.4375V1.17188L352.188 0.015625V24.3438ZM356.562 18.4062C356.562 17.2083 356.766 16.0938 357.172 15.0625C357.589 14.0312 358.151 13.1562 358.859 12.4375C360.318 10.9271 362.115 10.1719 364.25 10.1719C366.729 10.1719 368.667 10.9062 370.062 12.375C371.385 13.7812 372.047 15.6198 372.047 17.8906C372.047 20.4219 371.297 22.4792 369.797 24.0625C368.339 25.5938 366.536 26.3594 364.391 26.3594C361.943 26.3594 360.005 25.6042 358.578 24.0938C357.234 22.6771 356.562 20.7812 356.562 18.4062ZM360.562 13.75C360.146 14.2812 359.828 14.9062 359.609 15.625C359.401 16.3438 359.297 17.125 359.297 17.9688C359.297 18.8021 359.391 19.6198 359.578 20.4219C359.776 21.2135 360.078 21.9167 360.484 22.5312C361.38 23.8646 362.672 24.5312 364.359 24.5312C365.943 24.5312 367.172 24.0104 368.047 22.9688C368.911 21.9479 369.344 20.5677 369.344 18.8281C369.344 15.7448 368.464 13.6719 366.703 12.6094C366.047 12.2135 365.271 12.0156 364.375 12.0156C363.479 12.0156 362.724 12.1719 362.109 12.4844C361.495 12.7865 360.979 13.2083 360.562 13.75ZM393.203 26H391.031L387.094 14.9531L383.016 26H380.844L375.359 12.2031L373.578 11.8438V10.5469H380.031V11.8438L378.219 12.2031L382.5 23.4688L386.188 12.9688L385.734 12.2031L383.75 11.8438V10.5469H390.562V11.8438L388.641 12.2031L392.688 23.4688C392.688 23.4688 394.052 19.6875 396.781 12.125L394.969 11.8438V10.5469H400.406V11.8438L398.656 12.2031L393.203 26ZM24.9219 69.8594C24.9219 70.8802 25.375 71.3906 26.2812 71.3906C26.8229 71.3906 27.3021 71.0729 27.7188 70.4375C27.8229 70.2604 27.9062 70.0833 27.9688 69.9062L29.7188 66.0312C26.2396 57.8542 24.2969 53.2448 23.8906 52.2031L21.75 51.8438V50.5469H28.7188V51.8438L26.7812 52.2031L31.125 62.7344L35.7188 52.125L33.625 51.8438V50.5469H39.7656V51.8438L37.625 52.2031L29.7812 70.0625C29.5521 70.8125 29.1927 71.4583 28.7031 72C27.7656 73.0521 26.9583 73.5781 26.2812 73.5781C25.2812 73.5781 24.276 73.3542 23.2656 72.9062L24.1094 69.8594H24.9219ZM40.5469 58.4062C40.5469 57.2083 40.75 56.0938 41.1562 55.0625C41.5729 54.0312 42.1354 53.1562 42.8438 52.4375C44.3021 50.9271 46.099 50.1719 48.2344 50.1719C50.7135 50.1719 52.651 50.9062 54.0469 52.375C55.3698 53.7812 56.0312 55.6198 56.0312 57.8906C56.0312 60.4219 55.2812 62.4792 53.7812 64.0625C52.3229 65.5938 50.5208 66.3594 48.375 66.3594C45.9271 66.3594 43.9896 65.6042 42.5625 64.0938C41.2188 62.6771 40.5469 60.7812 40.5469 58.4062ZM44.5469 53.75C44.1302 54.2812 43.8125 54.9062 43.5938 55.625C43.3854 56.3438 43.2812 57.125 43.2812 57.9688C43.2812 58.8021 43.375 59.6198 43.5625 60.4219C43.7604 61.2135 44.0625 61.9167 44.4688 62.5312C45.3646 63.8646 46.6562 64.5312 48.3438 64.5312C49.9271 64.5312 51.1562 64.0104 52.0312 62.9688C52.8958 61.9479 53.3281 60.5677 53.3281 58.8281C53.3281 55.7448 52.4479 53.6719 50.6875 52.6094C50.0312 52.2135 49.2552 52.0156 48.3594 52.0156C47.4635 52.0156 46.7083 52.1719 46.0938 52.4844C45.4792 52.7865 44.9635 53.2083 44.5469 53.75ZM75.25 65.3438C74.1146 66.0208 73.2083 66.3594 72.5312 66.3594C71.8854 66.3594 71.4062 66.2292 71.0938 65.9688C70.5312 65.5312 70.25 65.0156 70.25 64.4219V64.2031C69.3542 64.9635 68.4271 65.5156 67.4688 65.8594C66.5104 66.1927 65.6719 66.3594 64.9531 66.3594C63.4948 66.3594 62.349 65.9635 61.5156 65.1719C60.6927 64.3698 60.2812 63.1615 60.2812 61.5469V52.9688L58.4219 52.6562V51.2812L62.8125 50.1719V61.5469C62.8125 62.4844 63.1354 63.2083 63.7812 63.7188C64.3125 64.1354 64.9375 64.3438 65.6562 64.3438C66.8333 64.3438 67.9375 64.0312 68.9688 63.4062C69.4375 63.1354 69.8646 62.8177 70.25 62.4531V52.9688L67.8906 52.6562V51.3594L72.7812 50.1719V63.3594C72.7812 63.9219 73.0625 64.2031 73.625 64.2031C74.0208 64.2031 74.4531 64.0938 74.9219 63.875L75.25 65.3438ZM78.9375 52.9688L76.9375 52.6094V51.3125L81.4688 50.1719V54.1562C83.8646 51.5 85.6667 50.1719 86.875 50.1719C87.8646 50.1719 88.776 50.5677 89.6094 51.3594L88.7969 53.8906H88.0625C88.0625 53.3802 87.6719 53 86.8906 52.75C86.6719 52.6875 86.4531 52.6562 86.2344 52.6562C85.1302 52.6562 83.5417 53.7656 81.4688 55.9844V64.3438L84.5625 64.7031V66H76.9375V64.7031L78.9375 64.3438V52.9688ZM110.859 52.2031C109.286 52.2031 107.661 52.7552 105.984 53.8594V64.3438L107.969 64.7031V66H101.406V64.7031L103.438 64.3438V42.8281L101.406 42.4375V41.1719L105.984 40.0156V52.2031C107.026 51.4844 108.047 50.9688 109.047 50.6562C110.057 50.3333 110.917 50.1719 111.625 50.1719C112.333 50.1719 112.969 50.2708 113.531 50.4688C114.094 50.6667 114.573 50.9688 114.969 51.375C115.802 52.2188 116.219 53.4271 116.219 55V64.3438L118.203 64.7031V66H111.656V64.7031L113.672 64.3438V55.2969C113.672 53.2344 112.734 52.2031 110.859 52.2031ZM132.812 62.4219L133.703 63.4375C132.047 64.9271 130.443 65.8594 128.891 66.2344C128.547 66.3177 128.208 66.3594 127.875 66.3594C125.583 66.3594 123.719 65.6354 122.281 64.1875C120.854 62.7708 120.141 60.9219 120.141 58.6406C120.141 56.3698 120.812 54.4271 122.156 52.8125C123.635 51.0521 125.557 50.1719 127.922 50.1719C129.557 50.1719 130.938 50.7604 132.062 51.9375C133.26 53.1667 133.859 54.7656 133.859 56.7344L133.125 57.3906L122.938 58.125C122.958 60.0208 123.573 61.5365 124.781 62.6719C125.865 63.6719 127.125 64.1719 128.562 64.1719C130 64.1719 131.417 63.5885 132.812 62.4219ZM123.047 56.6562L131.078 55.9219C131.005 54.1927 130.339 53.0052 129.078 52.3594C128.63 52.1302 128.057 52.0156 127.359 52.0156C126.661 52.0156 126.036 52.1875 125.484 52.5312C124.943 52.875 124.495 53.2917 124.141 53.7812C123.464 54.7083 123.099 55.6667 123.047 56.6562ZM150.984 65.1875C149.464 65.9688 148.365 66.3594 147.688 66.3594C146.167 66.3594 145.406 65.7135 145.406 64.4219V63.9375C145.26 64.1562 144.859 64.474 144.203 64.8906C143.557 65.3073 143.052 65.599 142.688 65.7656C141.823 66.1615 141.167 66.3594 140.719 66.3594C140.271 66.3594 139.901 66.3385 139.609 66.2969C139.318 66.2656 139.016 66.1979 138.703 66.0938C138.391 65.9896 138.083 65.8438 137.781 65.6562C137.479 65.4688 137.208 65.224 136.969 64.9219C136.438 64.2552 136.172 63.3854 136.172 62.3125C136.172 60.8333 136.698 59.8021 137.75 59.2188C138.417 58.8333 139.12 58.5938 139.859 58.5C140.609 58.4062 141.292 58.3333 141.906 58.2812C143.073 58.1771 144.24 58.1146 145.406 58.0938V54.8125C145.406 53.9062 145.292 53.3021 145.062 53C144.677 52.4688 144.078 52.2031 143.266 52.2031C141.453 52.2031 139.672 52.7917 137.922 53.9688L137.016 52.6094C139.453 50.9844 141.635 50.1719 143.562 50.1719C145.24 50.1719 146.427 50.6354 147.125 51.5625C147.667 52.2812 147.938 53.3021 147.938 54.625V62.8438C147.938 63.6146 148.083 64.0521 148.375 64.1562C148.479 64.1875 148.615 64.2031 148.781 64.2031C149.198 64.2031 149.839 64.0417 150.703 63.7188L150.984 65.1875ZM145.406 59.4062C142.448 59.5208 140.552 59.8177 139.719 60.2969C139.083 60.6615 138.766 61.25 138.766 62.0625C138.766 63.2396 139.219 63.9635 140.125 64.2344C140.375 64.3073 140.677 64.3438 141.031 64.3438C141.396 64.3438 141.818 64.2708 142.297 64.125C142.776 63.9792 143.219 63.8021 143.625 63.5938C144.396 63.2188 144.99 62.8542 145.406 62.5V59.4062ZM153.75 52.9688L151.75 52.6094V51.3125L156.281 50.1719V54.1562C158.677 51.5 160.479 50.1719 161.688 50.1719C162.677 50.1719 163.589 50.5677 164.422 51.3594L163.609 53.8906H162.875C162.875 53.3802 162.484 53 161.703 52.75C161.484 52.6875 161.266 52.6562 161.047 52.6562C159.943 52.6562 158.354 53.7656 156.281 55.9844V64.3438L159.375 64.7031V66H151.75V64.7031L153.75 64.3438V52.9688ZM169.672 61.2188C169.672 63.3021 170.516 64.3438 172.203 64.3438C173.089 64.3438 173.948 63.9792 174.781 63.25L175.625 64.2812C174.74 65.0104 173.922 65.5417 173.172 65.875C172.422 66.1979 171.76 66.3594 171.188 66.3594C170.615 66.3594 170.057 66.2344 169.516 65.9844C168.984 65.7344 168.542 65.375 168.188 64.9062C167.49 64 167.141 62.7135 167.141 61.0469V52.375H165.156V51.0156L167.141 50.5469V48.4531L168.984 46.6094H169.672V50.5469H174.828V52.375H169.672V61.2188ZM201.766 65.1875C200.245 65.9688 199.146 66.3594 198.469 66.3594C196.948 66.3594 196.188 65.7135 196.188 64.4219V63.9375C196.042 64.1562 195.641 64.474 194.984 64.8906C194.339 65.3073 193.833 65.599 193.469 65.7656C192.604 66.1615 191.948 66.3594 191.5 66.3594C191.052 66.3594 190.682 66.3385 190.391 66.2969C190.099 66.2656 189.797 66.1979 189.484 66.0938C189.172 65.9896 188.865 65.8438 188.562 65.6562C188.26 65.4688 187.99 65.224 187.75 64.9219C187.219 64.2552 186.953 63.3854 186.953 62.3125C186.953 60.8333 187.479 59.8021 188.531 59.2188C189.198 58.8333 189.901 58.5938 190.641 58.5C191.391 58.4062 192.073 58.3333 192.688 58.2812C193.854 58.1771 195.021 58.1146 196.188 58.0938V54.8125C196.188 53.9062 196.073 53.3021 195.844 53C195.458 52.4688 194.859 52.2031 194.047 52.2031C192.234 52.2031 190.453 52.7917 188.703 53.9688L187.797 52.6094C190.234 50.9844 192.417 50.1719 194.344 50.1719C196.021 50.1719 197.208 50.6354 197.906 51.5625C198.448 52.2812 198.719 53.3021 198.719 54.625V62.8438C198.719 63.6146 198.865 64.0521 199.156 64.1562C199.26 64.1875 199.396 64.2031 199.562 64.2031C199.979 64.2031 200.62 64.0417 201.484 63.7188L201.766 65.1875ZM196.188 59.4062C193.229 59.5208 191.333 59.8177 190.5 60.2969C189.865 60.6615 189.547 61.25 189.547 62.0625C189.547 63.2396 190 63.9635 190.906 64.2344C191.156 64.3073 191.458 64.3438 191.812 64.3438C192.177 64.3438 192.599 64.2708 193.078 64.125C193.557 63.9792 194 63.8021 194.406 63.5938C195.177 63.2188 195.771 62.8542 196.188 62.5V59.4062ZM212.375 52.2031C210.781 52.2031 209.182 52.7552 207.578 53.8594V64.3438L209.562 64.7031V66H203V64.7031L205.031 64.3438V52.9688L203 52.6094V51.3125L207.312 50.1719V52.2031C209.417 50.849 211.37 50.1719 213.172 50.1719C215.339 50.1719 216.75 51.0729 217.406 52.875C217.625 53.4792 217.734 54.1875 217.734 55V64.3438L219.719 64.7031V66H213.172V64.7031L215.188 64.3438V55.2969C215.188 53.2344 214.25 52.2031 212.375 52.2031ZM229.938 50.1719C231.24 50.1719 232.536 50.4271 233.828 50.9375V42.9219L231.438 42.4375V41.1719L236.359 40.0156V63.5C236.359 63.9688 236.62 64.2031 237.141 64.2031C237.672 64.2031 238.333 64.0417 239.125 63.7188L239.453 65.1875C237.964 65.9688 236.849 66.3594 236.109 66.3594C235.036 66.3594 234.333 66.0104 234 65.3125C233.885 65.0625 233.828 64.7656 233.828 64.4219C233.047 65.1094 232.214 65.6042 231.328 65.9062C230.443 66.2083 229.521 66.3594 228.562 66.3594C227.615 66.3594 226.698 66.1771 225.812 65.8125C224.927 65.4479 224.188 64.9271 223.594 64.25C222.438 62.9271 221.859 61.0573 221.859 58.6406C221.859 56.3281 222.542 54.3854 223.906 52.8125C225.417 51.0521 227.427 50.1719 229.938 50.1719ZM229.938 64.1719C230.99 64.1719 232.286 63.6771 233.828 62.6875V53.8125C232.932 52.6146 231.505 52.0156 229.547 52.0156C228.036 52.0156 226.812 52.625 225.875 53.8438C225 55 224.562 56.4896 224.562 58.3125C224.562 59.9688 224.979 61.3281 225.812 62.3906C226.729 63.5781 228.104 64.1719 229.938 64.1719ZM255.312 64.3438L257.312 64.7031V66H250.75V64.7031L252.781 64.3438V52.9688L250.75 52.6094V51.3125L255.312 50.1719V64.3438ZM252.688 45.4062C252.521 45.2188 252.385 45.0104 252.281 44.7812C252.177 44.5521 252.125 44.3281 252.125 44.1094C252.125 43.8802 252.177 43.6562 252.281 43.4375C252.385 43.2083 252.521 43 252.688 42.8125C253.073 42.3958 253.422 42.1875 253.734 42.1875C254.057 42.1875 254.328 42.2448 254.547 42.3594C254.776 42.474 254.979 42.625 255.156 42.8125C255.542 43.2396 255.734 43.6198 255.734 43.9531C255.734 44.276 255.677 44.5521 255.562 44.7812C255.458 45.0104 255.323 45.2188 255.156 45.4062C254.76 45.8125 254.396 46.0156 254.062 46.0156C253.74 46.0156 253.474 45.9583 253.266 45.8438C253.057 45.7292 252.865 45.5833 252.688 45.4062ZM268.5 52.2031C266.906 52.2031 265.307 52.7552 263.703 53.8594V64.3438L265.688 64.7031V66H259.125V64.7031L261.156 64.3438V52.9688L259.125 52.6094V51.3125L263.438 50.1719V52.2031C265.542 50.849 267.495 50.1719 269.297 50.1719C271.464 50.1719 272.875 51.0729 273.531 52.875C273.75 53.4792 273.859 54.1875 273.859 55V64.3438L275.844 64.7031V66H269.297V64.7031L271.312 64.3438V55.2969C271.312 53.2344 270.375 52.2031 268.5 52.2031ZM281.922 61.2188C281.922 63.3021 282.766 64.3438 284.453 64.3438C285.339 64.3438 286.198 63.9792 287.031 63.25L287.875 64.2812C286.99 65.0104 286.172 65.5417 285.422 65.875C284.672 66.1979 284.01 66.3594 283.438 66.3594C282.865 66.3594 282.307 66.2344 281.766 65.9844C281.234 65.7344 280.792 65.375 280.438 64.9062C279.74 64 279.391 62.7135 279.391 61.0469V52.375H277.406V51.0156L279.391 50.5469V48.4531L281.234 46.6094H281.922V50.5469H287.078V52.375H281.922V61.2188ZM305 65.3438C303.865 66.0208 302.958 66.3594 302.281 66.3594C301.635 66.3594 301.156 66.2292 300.844 65.9688C300.281 65.5312 300 65.0156 300 64.4219V64.2031C299.104 64.9635 298.177 65.5156 297.219 65.8594C296.26 66.1927 295.422 66.3594 294.703 66.3594C293.245 66.3594 292.099 65.9635 291.266 65.1719C290.443 64.3698 290.031 63.1615 290.031 61.5469V52.9688L288.172 52.6562V51.2812L292.562 50.1719V61.5469C292.562 62.4844 292.885 63.2083 293.531 63.7188C294.062 64.1354 294.688 64.3438 295.406 64.3438C296.583 64.3438 297.688 64.0312 298.719 63.4062C299.188 63.1354 299.615 62.8177 300 62.4531V52.9688L297.641 52.6562V51.3594L302.531 50.1719V63.3594C302.531 63.9219 302.812 64.2031 303.375 64.2031C303.771 64.2031 304.203 64.0938 304.672 63.875L305 65.3438ZM311.375 64.3438L313.375 64.7031V66H306.812V64.7031L308.844 64.3438V52.9688L306.812 52.6094V51.3125L311.375 50.1719V64.3438ZM308.75 45.4062C308.583 45.2188 308.448 45.0104 308.344 44.7812C308.24 44.5521 308.188 44.3281 308.188 44.1094C308.188 43.8802 308.24 43.6562 308.344 43.4375C308.448 43.2083 308.583 43 308.75 42.8125C309.135 42.3958 309.484 42.1875 309.797 42.1875C310.12 42.1875 310.391 42.2448 310.609 42.3594C310.839 42.474 311.042 42.625 311.219 42.8125C311.604 43.2396 311.797 43.6198 311.797 43.9531C311.797 44.276 311.74 44.5521 311.625 44.7812C311.521 45.0104 311.385 45.2188 311.219 45.4062C310.823 45.8125 310.458 46.0156 310.125 46.0156C309.802 46.0156 309.536 45.9583 309.328 45.8438C309.12 45.7292 308.927 45.5833 308.75 45.4062ZM319.297 61.2188C319.297 63.3021 320.141 64.3438 321.828 64.3438C322.714 64.3438 323.573 63.9792 324.406 63.25L325.25 64.2812C324.365 65.0104 323.547 65.5417 322.797 65.875C322.047 66.1979 321.385 66.3594 320.812 66.3594C320.24 66.3594 319.682 66.2344 319.141 65.9844C318.609 65.7344 318.167 65.375 317.812 64.9062C317.115 64 316.766 62.7135 316.766 61.0469V52.375H314.781V51.0156L316.766 50.5469V48.4531L318.609 46.6094H319.297V50.5469H324.453V52.375H319.297V61.2188ZM330.094 64.3438L332.094 64.7031V66H325.531V64.7031L327.562 64.3438V52.9688L325.531 52.6094V51.3125L330.094 50.1719V64.3438ZM327.469 45.4062C327.302 45.2188 327.167 45.0104 327.062 44.7812C326.958 44.5521 326.906 44.3281 326.906 44.1094C326.906 43.8802 326.958 43.6562 327.062 43.4375C327.167 43.2083 327.302 43 327.469 42.8125C327.854 42.3958 328.203 42.1875 328.516 42.1875C328.839 42.1875 329.109 42.2448 329.328 42.3594C329.557 42.474 329.76 42.625 329.938 42.8125C330.323 43.2396 330.516 43.6198 330.516 43.9531C330.516 44.276 330.458 44.5521 330.344 44.7812C330.24 45.0104 330.104 45.2188 329.938 45.4062C329.542 45.8125 329.177 46.0156 328.844 46.0156C328.521 46.0156 328.255 45.9583 328.047 45.8438C327.839 45.7292 327.646 45.5833 327.469 45.4062ZM334.359 58.4062C334.359 57.2083 334.562 56.0938 334.969 55.0625C335.385 54.0312 335.948 53.1562 336.656 52.4375C338.115 50.9271 339.911 50.1719 342.047 50.1719C344.526 50.1719 346.464 50.9062 347.859 52.375C349.182 53.7812 349.844 55.6198 349.844 57.8906C349.844 60.4219 349.094 62.4792 347.594 64.0625C346.135 65.5938 344.333 66.3594 342.188 66.3594C339.74 66.3594 337.802 65.6042 336.375 64.0938C335.031 62.6771 334.359 60.7812 334.359 58.4062ZM338.359 53.75C337.943 54.2812 337.625 54.9062 337.406 55.625C337.198 56.3438 337.094 57.125 337.094 57.9688C337.094 58.8021 337.188 59.6198 337.375 60.4219C337.573 61.2135 337.875 61.9167 338.281 62.5312C339.177 63.8646 340.469 64.5312 342.156 64.5312C343.74 64.5312 344.969 64.0104 345.844 62.9688C346.708 61.9479 347.141 60.5677 347.141 58.8281C347.141 55.7448 346.26 53.6719 344.5 52.6094C343.844 52.2135 343.068 52.0156 342.172 52.0156C341.276 52.0156 340.521 52.1719 339.906 52.4844C339.292 52.7865 338.776 53.2083 338.359 53.75ZM361.938 52.2031C360.344 52.2031 358.745 52.7552 357.141 53.8594V64.3438L359.125 64.7031V66H352.562V64.7031L354.594 64.3438V52.9688L352.562 52.6094V51.3125L356.875 50.1719V52.2031C358.979 50.849 360.932 50.1719 362.734 50.1719C364.901 50.1719 366.312 51.0729 366.969 52.875C367.188 53.4792 367.297 54.1875 367.297 55V64.3438L369.281 64.7031V66H362.734V64.7031L364.75 64.3438V55.2969C364.75 53.2344 363.812 52.2031 361.938 52.2031ZM373.062 65.8906C372.719 65.5677 372.474 65.2917 372.328 65.0625C372.182 64.8229 372.109 64.6042 372.109 64.4062C372.109 64.2083 372.172 63.9948 372.297 63.7656C372.432 63.526 372.599 63.3021 372.797 63.0938C373.266 62.6042 373.703 62.3594 374.109 62.3594C374.536 62.3594 374.911 62.5312 375.234 62.875C375.828 63.4792 376.125 63.9844 376.125 64.3906C376.125 64.776 375.958 65.1354 375.625 65.4688C375.031 66.0625 374.526 66.3594 374.109 66.3594C373.755 66.3594 373.406 66.2031 373.062 65.8906ZM20.875 82.4375L21.25 87.4531H19.8438L19.0469 84.3281H12.375V104.312L15.8125 104.672V106H6.04688V104.672L9.45312 104.312V84.3281H2.8125L1.96875 87.4531H0.59375L0.96875 82.4375H20.875ZM33.4531 92.2031C31.8802 92.2031 30.2552 92.7552 28.5781 93.8594V104.344L30.5625 104.703V106H24V104.703L26.0312 104.344V82.8281L24 82.4375V81.1719L28.5781 80.0156V92.2031C29.6198 91.4844 30.6406 90.9688 31.6406 90.6562C32.651 90.3333 33.5104 90.1719 34.2188 90.1719C34.9271 90.1719 35.5625 90.2708 36.125 90.4688C36.6875 90.6667 37.1667 90.9688 37.5625 91.375C38.3958 92.2188 38.8125 93.4271 38.8125 95V104.344L40.7969 104.703V106H34.25V104.703L36.2656 104.344V95.2969C36.2656 93.2344 35.3281 92.2031 33.4531 92.2031ZM55.4062 102.422L56.2969 103.438C54.6406 104.927 53.0365 105.859 51.4844 106.234C51.1406 106.318 50.8021 106.359 50.4688 106.359C48.1771 106.359 46.3125 105.635 44.875 104.188C43.4479 102.771 42.7344 100.922 42.7344 98.6406C42.7344 96.3698 43.4062 94.4271 44.75 92.8125C46.2292 91.0521 48.151 90.1719 50.5156 90.1719C52.151 90.1719 53.5312 90.7604 54.6562 91.9375C55.8542 93.1667 56.4531 94.7656 56.4531 96.7344L55.7188 97.3906L45.5312 98.125C45.5521 100.021 46.1667 101.536 47.375 102.672C48.4583 103.672 49.7188 104.172 51.1562 104.172C52.5938 104.172 54.0104 103.589 55.4062 102.422ZM45.6406 96.6562L53.6719 95.9219C53.599 94.1927 52.9323 93.0052 51.6719 92.3594C51.224 92.1302 50.651 92.0156 49.9531 92.0156C49.2552 92.0156 48.6302 92.1875 48.0781 92.5312C47.5365 92.875 47.0885 93.2917 46.7344 93.7812C46.0573 94.7083 45.6927 95.6667 45.6406 96.6562ZM59.7031 109.859C59.7031 110.88 60.1562 111.391 61.0625 111.391C61.6042 111.391 62.0833 111.073 62.5 110.438C62.6042 110.26 62.6875 110.083 62.75 109.906L64.5 106.031C61.0208 97.8542 59.0781 93.2448 58.6719 92.2031L56.5312 91.8438V90.5469H63.5V91.8438L61.5625 92.2031L65.9062 102.734L70.5 92.125L68.4062 91.8438V90.5469H74.5469V91.8438L72.4062 92.2031L64.5625 110.062C64.3333 110.812 63.974 111.458 63.4844 112C62.5469 113.052 61.7396 113.578 61.0625 113.578C60.0625 113.578 59.0573 113.354 58.0469 112.906L58.8906 109.859H59.7031ZM87.1406 101.438C87.1406 103.615 88.474 104.703 91.1406 104.703C92.151 104.703 92.9583 104.479 93.5625 104.031C94.1146 103.625 94.3906 103.115 94.3906 102.5C94.3906 101.854 94.2292 101.354 93.9062 101C93.2708 100.302 92.349 99.7448 91.1406 99.3281C89.9427 98.9115 89.0417 98.5156 88.4375 98.1406C87.8438 97.7552 87.375 97.3542 87.0312 96.9375C86.4375 96.2292 86.1406 95.4688 86.1406 94.6562C86.1406 93.8333 86.2917 93.1615 86.5938 92.6406C86.9062 92.1198 87.3125 91.6771 87.8125 91.3125C88.875 90.5521 90.1042 90.1719 91.5 90.1719C93.1771 90.1719 94.6406 90.5417 95.8906 91.2812L95.5312 94.2969H94.6875C94.6875 92.6615 93.599 91.8438 91.4219 91.8438C90.474 91.8438 89.7552 92.0312 89.2656 92.4062C88.776 92.7708 88.5312 93.2292 88.5312 93.7812C88.5312 95 89.8906 96.1042 92.6094 97.0938C95.151 98.0312 96.5833 99.2552 96.9062 100.766C96.9896 101.193 97.0312 101.703 97.0312 102.297C97.0312 102.88 96.8385 103.448 96.4531 104C96.0781 104.552 95.6042 105 95.0312 105.344C93.9167 106.021 92.6302 106.359 91.1719 106.359C89.7448 106.359 88.4115 106.083 87.1719 105.531C86.6198 105.292 86.1406 105.016 85.7344 104.703L86.3281 101.438H87.1406ZM99.3906 98.4062C99.3906 97.2083 99.5938 96.0938 100 95.0625C100.417 94.0312 100.979 93.1562 101.688 92.4375C103.146 90.9271 104.943 90.1719 107.078 90.1719C109.557 90.1719 111.495 90.9062 112.891 92.375C114.214 93.7812 114.875 95.6198 114.875 97.8906C114.875 100.422 114.125 102.479 112.625 104.062C111.167 105.594 109.365 106.359 107.219 106.359C104.771 106.359 102.833 105.604 101.406 104.094C100.062 102.677 99.3906 100.781 99.3906 98.4062ZM103.391 93.75C102.974 94.2812 102.656 94.9062 102.438 95.625C102.229 96.3438 102.125 97.125 102.125 97.9688C102.125 98.8021 102.219 99.6198 102.406 100.422C102.604 101.214 102.906 101.917 103.312 102.531C104.208 103.865 105.5 104.531 107.188 104.531C108.771 104.531 110 104.01 110.875 102.969C111.74 101.948 112.172 100.568 112.172 98.8281C112.172 95.7448 111.292 93.6719 109.531 92.6094C108.875 92.2135 108.099 92.0156 107.203 92.0156C106.307 92.0156 105.552 92.1719 104.938 92.4844C104.323 92.7865 103.807 93.2083 103.391 93.75ZM127.531 92.2031C125.708 92.2031 124.016 92.7552 122.453 93.8594V104.344L124.438 104.703V106H117.906V104.703L119.922 104.344V92.9688L117.906 92.6094V91.3125L122.453 90.1719V92.2031C124.411 90.849 126.255 90.1719 127.984 90.1719C130.151 90.1719 131.557 90.8594 132.203 92.2344C133.266 91.4948 134.302 90.9688 135.312 90.6562C136.323 90.3333 137.182 90.1719 137.891 90.1719C139.474 90.1719 140.651 90.5677 141.422 91.3594C142.203 92.151 142.594 93.3646 142.594 95V104.344L144.562 104.703V106H138.062V104.703L140.047 104.344V95C140.047 94.0625 139.771 93.3438 139.219 92.8438C138.75 92.4167 138.167 92.2031 137.469 92.2031C135.677 92.2031 134.036 92.7396 132.547 93.8125C132.599 94.3333 132.625 94.7292 132.625 95V104.344L134.422 104.703V106H128.234V104.703L130.062 104.344V95C130.062 94.0625 129.802 93.3438 129.281 92.8438C128.833 92.4167 128.25 92.2031 127.531 92.2031ZM159.594 102.422L160.484 103.438C158.828 104.927 157.224 105.859 155.672 106.234C155.328 106.318 154.99 106.359 154.656 106.359C152.365 106.359 150.5 105.635 149.062 104.188C147.635 102.771 146.922 100.922 146.922 98.6406C146.922 96.3698 147.594 94.4271 148.938 92.8125C150.417 91.0521 152.339 90.1719 154.703 90.1719C156.339 90.1719 157.719 90.7604 158.844 91.9375C160.042 93.1667 160.641 94.7656 160.641 96.7344L159.906 97.3906L149.719 98.125C149.74 100.021 150.354 101.536 151.562 102.672C152.646 103.672 153.906 104.172 155.344 104.172C156.781 104.172 158.198 103.589 159.594 102.422ZM149.828 96.6562L157.859 95.9219C157.786 94.1927 157.12 93.0052 155.859 92.3594C155.411 92.1302 154.839 92.0156 154.141 92.0156C153.443 92.0156 152.818 92.1875 152.266 92.5312C151.724 92.875 151.276 93.2917 150.922 93.7812C150.245 94.7083 149.88 95.6667 149.828 96.6562ZM172.359 92.2031C170.786 92.2031 169.161 92.7552 167.484 93.8594V104.344L169.469 104.703V106H162.906V104.703L164.938 104.344V82.8281L162.906 82.4375V81.1719L167.484 80.0156V92.2031C168.526 91.4844 169.547 90.9688 170.547 90.6562C171.557 90.3333 172.417 90.1719 173.125 90.1719C173.833 90.1719 174.469 90.2708 175.031 90.4688C175.594 90.6667 176.073 90.9688 176.469 91.375C177.302 92.2188 177.719 93.4271 177.719 95V104.344L179.703 104.703V106H173.156V104.703L175.172 104.344V95.2969C175.172 93.2344 174.234 92.2031 172.359 92.2031ZM182.109 98.4062C182.109 97.2083 182.312 96.0938 182.719 95.0625C183.135 94.0312 183.698 93.1562 184.406 92.4375C185.865 90.9271 187.661 90.1719 189.797 90.1719C192.276 90.1719 194.214 90.9062 195.609 92.375C196.932 93.7812 197.594 95.6198 197.594 97.8906C197.594 100.422 196.844 102.479 195.344 104.062C193.885 105.594 192.083 106.359 189.938 106.359C187.49 106.359 185.552 105.604 184.125 104.094C182.781 102.677 182.109 100.781 182.109 98.4062ZM186.109 93.75C185.693 94.2812 185.375 94.9062 185.156 95.625C184.948 96.3438 184.844 97.125 184.844 97.9688C184.844 98.8021 184.938 99.6198 185.125 100.422C185.323 101.214 185.625 101.917 186.031 102.531C186.927 103.865 188.219 104.531 189.906 104.531C191.49 104.531 192.719 104.01 193.594 102.969C194.458 101.948 194.891 100.568 194.891 98.8281C194.891 95.7448 194.01 93.6719 192.25 92.6094C191.594 92.2135 190.818 92.0156 189.922 92.0156C189.026 92.0156 188.271 92.1719 187.656 92.4844C187.042 92.7865 186.526 93.2083 186.109 93.75ZM218.75 106H216.578L212.641 94.9531L208.562 106H206.391L200.906 92.2031L199.125 91.8438V90.5469H205.578V91.8438L203.766 92.2031L208.047 103.469L211.734 92.9688L211.281 92.2031L209.297 91.8438V90.5469H216.109V91.8438L214.188 92.2031L218.234 103.469C218.234 103.469 219.599 99.6875 222.328 92.125L220.516 91.8438V90.5469H225.953V91.8438L224.203 92.2031L218.75 106ZM242.141 104.344L244.125 104.703V106H237.562V104.703L239.594 104.344V82.8281L237.562 82.4375V81.1719L242.141 80.0156V104.344ZM249.25 92.1719L247.859 91.8438V90.5469H254.125V91.8438L251.688 92.2031L245.078 97.2812L251.641 103.938L252.656 104.453L254.344 104.703V106H249.953L242.266 97.6875L249.25 92.1719ZM265.75 92.2031C264.156 92.2031 262.557 92.7552 260.953 93.8594V104.344L262.938 104.703V106H256.375V104.703L258.406 104.344V92.9688L256.375 92.6094V91.3125L260.688 90.1719V92.2031C262.792 90.849 264.745 90.1719 266.547 90.1719C268.714 90.1719 270.125 91.0729 270.781 92.875C271 93.4792 271.109 94.1875 271.109 95V104.344L273.094 104.703V106H266.547V104.703L268.562 104.344V95.2969C268.562 93.2344 267.625 92.2031 265.75 92.2031ZM275.516 98.4062C275.516 97.2083 275.719 96.0938 276.125 95.0625C276.542 94.0312 277.104 93.1562 277.812 92.4375C279.271 90.9271 281.068 90.1719 283.203 90.1719C285.682 90.1719 287.62 90.9062 289.016 92.375C290.339 93.7812 291 95.6198 291 97.8906C291 100.422 290.25 102.479 288.75 104.062C287.292 105.594 285.49 106.359 283.344 106.359C280.896 106.359 278.958 105.604 277.531 104.094C276.188 102.677 275.516 100.781 275.516 98.4062ZM279.516 93.75C279.099 94.2812 278.781 94.9062 278.562 95.625C278.354 96.3438 278.25 97.125 278.25 97.9688C278.25 98.8021 278.344 99.6198 278.531 100.422C278.729 101.214 279.031 101.917 279.438 102.531C280.333 103.865 281.625 104.531 283.312 104.531C284.896 104.531 286.125 104.01 287 102.969C287.865 101.948 288.297 100.568 288.297 98.8281C288.297 95.7448 287.417 93.6719 285.656 92.6094C285 92.2135 284.224 92.0156 283.328 92.0156C282.432 92.0156 281.677 92.1719 281.062 92.4844C280.448 92.7865 279.932 93.2083 279.516 93.75ZM312.156 106H309.984L306.047 94.9531L301.969 106H299.797L294.312 92.2031L292.531 91.8438V90.5469H298.984V91.8438L297.172 92.2031L301.453 103.469L305.141 92.9688L304.688 92.2031L302.703 91.8438V90.5469H309.516V91.8438L307.594 92.2031L311.641 103.469C311.641 103.469 313.005 99.6875 315.734 92.125L313.922 91.8438V90.5469H319.359V91.8438L317.609 92.2031L312.156 106ZM349.562 106H347.391L343.453 94.9531L339.375 106H337.203L331.719 92.2031L329.938 91.8438V90.5469H336.391V91.8438L334.578 92.2031L338.859 103.469L342.547 92.9688L342.094 92.2031L340.109 91.8438V90.5469H346.922V91.8438L345 92.2031L349.047 103.469C349.047 103.469 350.411 99.6875 353.141 92.125L351.328 91.8438V90.5469H356.766V91.8438L355.016 92.2031L349.562 106ZM367.203 92.2031C365.63 92.2031 364.005 92.7552 362.328 93.8594V104.344L364.312 104.703V106H357.75V104.703L359.781 104.344V82.8281L357.75 82.4375V81.1719L362.328 80.0156V92.2031C363.37 91.4844 364.391 90.9688 365.391 90.6562C366.401 90.3333 367.26 90.1719 367.969 90.1719C368.677 90.1719 369.312 90.2708 369.875 90.4688C370.438 90.6667 370.917 90.9688 371.312 91.375C372.146 92.2188 372.562 93.4271 372.562 95V104.344L374.547 104.703V106H368V104.703L370.016 104.344V95.2969C370.016 93.2344 369.078 92.2031 367.203 92.2031ZM391.297 105.188C389.776 105.969 388.677 106.359 388 106.359C386.479 106.359 385.719 105.714 385.719 104.422V103.938C385.573 104.156 385.172 104.474 384.516 104.891C383.87 105.307 383.365 105.599 383 105.766C382.135 106.161 381.479 106.359 381.031 106.359C380.583 106.359 380.214 106.339 379.922 106.297C379.63 106.266 379.328 106.198 379.016 106.094C378.703 105.99 378.396 105.844 378.094 105.656C377.792 105.469 377.521 105.224 377.281 104.922C376.75 104.255 376.484 103.385 376.484 102.312C376.484 100.833 377.01 99.8021 378.062 99.2188C378.729 98.8333 379.432 98.5938 380.172 98.5C380.922 98.4062 381.604 98.3333 382.219 98.2812C383.385 98.1771 384.552 98.1146 385.719 98.0938V94.8125C385.719 93.9062 385.604 93.3021 385.375 93C384.99 92.4688 384.391 92.2031 383.578 92.2031C381.766 92.2031 379.984 92.7917 378.234 93.9688L377.328 92.6094C379.766 90.9844 381.948 90.1719 383.875 90.1719C385.552 90.1719 386.74 90.6354 387.438 91.5625C387.979 92.2812 388.25 93.3021 388.25 94.625V102.844C388.25 103.615 388.396 104.052 388.688 104.156C388.792 104.188 388.927 104.203 389.094 104.203C389.51 104.203 390.151 104.042 391.016 103.719L391.297 105.188ZM385.719 99.4062C382.76 99.5208 380.865 99.8177 380.031 100.297C379.396 100.661 379.078 101.25 379.078 102.062C379.078 103.24 379.531 103.964 380.438 104.234C380.688 104.307 380.99 104.344 381.344 104.344C381.708 104.344 382.13 104.271 382.609 104.125C383.089 103.979 383.531 103.802 383.938 103.594C384.708 103.219 385.302 102.854 385.719 102.5V99.4062ZM396.641 101.219C396.641 103.302 397.484 104.344 399.172 104.344C400.057 104.344 400.917 103.979 401.75 103.25L402.594 104.281C401.708 105.01 400.891 105.542 400.141 105.875C399.391 106.198 398.729 106.359 398.156 106.359C397.583 106.359 397.026 106.234 396.484 105.984C395.953 105.734 395.51 105.375 395.156 104.906C394.458 104 394.109 102.714 394.109 101.047V92.375H392.125V91.0156L394.109 90.5469V88.4531L395.953 86.6094H396.641V90.5469H401.797V92.375H396.641V101.219ZM8.92188 149.859C8.92188 150.88 9.375 151.391 10.2812 151.391C10.8229 151.391 11.3021 151.073 11.7188 150.438C11.8229 150.26 11.9062 150.083 11.9688 149.906L13.7188 146.031C10.2396 137.854 8.29688 133.245 7.89062 132.203L5.75 131.844V130.547H12.7188V131.844L10.7812 132.203L15.125 142.734L19.7188 132.125L17.625 131.844V130.547H23.7656V131.844L21.625 132.203L13.7812 150.062C13.5521 150.812 13.1927 151.458 12.7031 152C11.7656 153.052 10.9583 153.578 10.2812 153.578C9.28125 153.578 8.27604 153.354 7.26562 152.906L8.10938 149.859H8.92188ZM24.5469 138.406C24.5469 137.208 24.75 136.094 25.1562 135.062C25.5729 134.031 26.1354 133.156 26.8438 132.438C28.3021 130.927 30.099 130.172 32.2344 130.172C34.7135 130.172 36.651 130.906 38.0469 132.375C39.3698 133.781 40.0312 135.62 40.0312 137.891C40.0312 140.422 39.2812 142.479 37.7812 144.062C36.3229 145.594 34.5208 146.359 32.375 146.359C29.9271 146.359 27.9896 145.604 26.5625 144.094C25.2188 142.677 24.5469 140.781 24.5469 138.406ZM28.5469 133.75C28.1302 134.281 27.8125 134.906 27.5938 135.625C27.3854 136.344 27.2812 137.125 27.2812 137.969C27.2812 138.802 27.375 139.62 27.5625 140.422C27.7604 141.214 28.0625 141.917 28.4688 142.531C29.3646 143.865 30.6562 144.531 32.3438 144.531C33.9271 144.531 35.1562 144.01 36.0312 142.969C36.8958 141.948 37.3281 140.568 37.3281 138.828C37.3281 135.745 36.4479 133.672 34.6875 132.609C34.0312 132.214 33.2552 132.016 32.3594 132.016C31.4635 132.016 30.7083 132.172 30.0938 132.484C29.4792 132.786 28.9635 133.208 28.5469 133.75ZM59.25 145.344C58.1146 146.021 57.2083 146.359 56.5312 146.359C55.8854 146.359 55.4062 146.229 55.0938 145.969C54.5312 145.531 54.25 145.016 54.25 144.422V144.203C53.3542 144.964 52.4271 145.516 51.4688 145.859C50.5104 146.193 49.6719 146.359 48.9531 146.359C47.4948 146.359 46.349 145.964 45.5156 145.172C44.6927 144.37 44.2812 143.161 44.2812 141.547V132.969L42.4219 132.656V131.281L46.8125 130.172V141.547C46.8125 142.484 47.1354 143.208 47.7812 143.719C48.3125 144.135 48.9375 144.344 49.6562 144.344C50.8333 144.344 51.9375 144.031 52.9688 143.406C53.4375 143.135 53.8646 142.818 54.25 142.453V132.969L51.8906 132.656V131.359L56.7812 130.172V143.359C56.7812 143.922 57.0625 144.203 57.625 144.203C58.0208 144.203 58.4531 144.094 58.9219 143.875L59.25 145.344ZM76.2344 141.219C76.2344 143.302 77.0781 144.344 78.7656 144.344C79.651 144.344 80.5104 143.979 81.3438 143.25L82.1875 144.281C81.3021 145.01 80.4844 145.542 79.7344 145.875C78.9844 146.198 78.3229 146.359 77.75 146.359C77.1771 146.359 76.6198 146.234 76.0781 145.984C75.5469 145.734 75.1042 145.375 74.75 144.906C74.0521 144 73.7031 142.714 73.7031 141.047V132.375H71.7188V131.016L73.7031 130.547V128.453L75.5469 126.609H76.2344V130.547H81.3906V132.375H76.2344V141.219ZM84.3438 132.969L82.3438 132.609V131.312L86.875 130.172V134.156C89.2708 131.5 91.0729 130.172 92.2812 130.172C93.2708 130.172 94.1823 130.568 95.0156 131.359L94.2031 133.891H93.4688C93.4688 133.38 93.0781 133 92.2969 132.75C92.0781 132.688 91.8594 132.656 91.6406 132.656C90.5365 132.656 88.9479 133.766 86.875 135.984V144.344L89.9688 144.703V146H82.3438V144.703L84.3438 144.344V132.969ZM112.656 145.344C111.521 146.021 110.615 146.359 109.938 146.359C109.292 146.359 108.812 146.229 108.5 145.969C107.938 145.531 107.656 145.016 107.656 144.422V144.203C106.76 144.964 105.833 145.516 104.875 145.859C103.917 146.193 103.078 146.359 102.359 146.359C100.901 146.359 99.7552 145.964 98.9219 145.172C98.099 144.37 97.6875 143.161 97.6875 141.547V132.969L95.8281 132.656V131.281L100.219 130.172V141.547C100.219 142.484 100.542 143.208 101.188 143.719C101.719 144.135 102.344 144.344 103.062 144.344C104.24 144.344 105.344 144.031 106.375 143.406C106.844 143.135 107.271 142.818 107.656 142.453V132.969L105.297 132.656V131.359L110.188 130.172V143.359C110.188 143.922 110.469 144.203 111.031 144.203C111.427 144.203 111.859 144.094 112.328 143.875L112.656 145.344ZM118.922 144.344L120.922 144.703V146H114.359V144.703L116.391 144.344V122.828L114.359 122.438V121.172L118.922 120.016V144.344ZM123.766 149.859C123.766 150.88 124.219 151.391 125.125 151.391C125.667 151.391 126.146 151.073 126.562 150.438C126.667 150.26 126.75 150.083 126.812 149.906L128.562 146.031C125.083 137.854 123.141 133.245 122.734 132.203L120.594 131.844V130.547H127.562V131.844L125.625 132.203L129.969 142.734L134.562 132.125L132.469 131.844V130.547H138.609V131.844L136.469 132.203L128.625 150.062C128.396 150.812 128.036 151.458 127.547 152C126.609 153.052 125.802 153.578 125.125 153.578C124.125 153.578 123.12 153.354 122.109 152.906L122.953 149.859H123.766ZM168.094 146H165.922L161.984 134.953L157.906 146H155.734L150.25 132.203L148.469 131.844V130.547H154.922V131.844L153.109 132.203L157.391 143.469L161.078 132.969L160.625 132.203L158.641 131.844V130.547H165.453V131.844L163.531 132.203L167.578 143.469C167.578 143.469 168.943 139.688 171.672 132.125L169.859 131.844V130.547H175.297V131.844L173.547 132.203L168.094 146ZM191.141 145.188C189.62 145.969 188.521 146.359 187.844 146.359C186.323 146.359 185.562 145.714 185.562 144.422V143.938C185.417 144.156 185.016 144.474 184.359 144.891C183.714 145.307 183.208 145.599 182.844 145.766C181.979 146.161 181.323 146.359 180.875 146.359C180.427 146.359 180.057 146.339 179.766 146.297C179.474 146.266 179.172 146.198 178.859 146.094C178.547 145.99 178.24 145.844 177.938 145.656C177.635 145.469 177.365 145.224 177.125 144.922C176.594 144.255 176.328 143.385 176.328 142.312C176.328 140.833 176.854 139.802 177.906 139.219C178.573 138.833 179.276 138.594 180.016 138.5C180.766 138.406 181.448 138.333 182.062 138.281C183.229 138.177 184.396 138.115 185.562 138.094V134.812C185.562 133.906 185.448 133.302 185.219 133C184.833 132.469 184.234 132.203 183.422 132.203C181.609 132.203 179.828 132.792 178.078 133.969L177.172 132.609C179.609 130.984 181.792 130.172 183.719 130.172C185.396 130.172 186.583 130.635 187.281 131.562C187.823 132.281 188.094 133.302 188.094 134.625V142.844C188.094 143.615 188.24 144.052 188.531 144.156C188.635 144.188 188.771 144.203 188.938 144.203C189.354 144.203 189.995 144.042 190.859 143.719L191.141 145.188ZM185.562 139.406C182.604 139.521 180.708 139.818 179.875 140.297C179.24 140.661 178.922 141.25 178.922 142.062C178.922 143.24 179.375 143.964 180.281 144.234C180.531 144.307 180.833 144.344 181.188 144.344C181.552 144.344 181.974 144.271 182.453 144.125C182.932 143.979 183.375 143.802 183.781 143.594C184.552 143.219 185.146 142.854 185.562 142.5V139.406ZM201.75 132.203C200.156 132.203 198.557 132.755 196.953 133.859V144.344L198.938 144.703V146H192.375V144.703L194.406 144.344V132.969L192.375 132.609V131.312L196.688 130.172V132.203C198.792 130.849 200.745 130.172 202.547 130.172C204.714 130.172 206.125 131.073 206.781 132.875C207 133.479 207.109 134.188 207.109 135V144.344L209.094 144.703V146H202.547V144.703L204.562 144.344V135.297C204.562 133.234 203.625 132.203 201.75 132.203ZM215.172 141.219C215.172 143.302 216.016 144.344 217.703 144.344C218.589 144.344 219.448 143.979 220.281 143.25L221.125 144.281C220.24 145.01 219.422 145.542 218.672 145.875C217.922 146.198 217.26 146.359 216.688 146.359C216.115 146.359 215.557 146.234 215.016 145.984C214.484 145.734 214.042 145.375 213.688 144.906C212.99 144 212.641 142.714 212.641 141.047V132.375H210.656V131.016L212.641 130.547V128.453L214.484 126.609H215.172V130.547H220.328V132.375H215.172V141.219ZM236.578 141.219C236.578 143.302 237.422 144.344 239.109 144.344C239.995 144.344 240.854 143.979 241.688 143.25L242.531 144.281C241.646 145.01 240.828 145.542 240.078 145.875C239.328 146.198 238.667 146.359 238.094 146.359C237.521 146.359 236.964 146.234 236.422 145.984C235.891 145.734 235.448 145.375 235.094 144.906C234.396 144 234.047 142.714 234.047 141.047V132.375H232.062V131.016L234.047 130.547V128.453L235.891 126.609H236.578V130.547H241.734V132.375H236.578V141.219ZM243.609 138.406C243.609 137.208 243.812 136.094 244.219 135.062C244.635 134.031 245.198 133.156 245.906 132.438C247.365 130.927 249.161 130.172 251.297 130.172C253.776 130.172 255.714 130.906 257.109 132.375C258.432 133.781 259.094 135.62 259.094 137.891C259.094 140.422 258.344 142.479 256.844 144.062C255.385 145.594 253.583 146.359 251.438 146.359C248.99 146.359 247.052 145.604 245.625 144.094C244.281 142.677 243.609 140.781 243.609 138.406ZM247.609 133.75C247.193 134.281 246.875 134.906 246.656 135.625C246.448 136.344 246.344 137.125 246.344 137.969C246.344 138.802 246.438 139.62 246.625 140.422C246.823 141.214 247.125 141.917 247.531 142.531C248.427 143.865 249.719 144.531 251.406 144.531C252.99 144.531 254.219 144.01 255.094 142.969C255.958 141.948 256.391 140.568 256.391 138.828C256.391 135.745 255.51 133.672 253.75 132.609C253.094 132.214 252.318 132.016 251.422 132.016C250.526 132.016 249.771 132.172 249.156 132.484C248.542 132.786 248.026 133.208 247.609 133.75ZM274.047 122.828L272.016 122.438V121.172L276.594 120.016V132.203C277.615 131.484 278.594 130.969 279.531 130.656C280.479 130.333 281.375 130.172 282.219 130.172C283.073 130.172 283.906 130.37 284.719 130.766C285.531 131.151 286.219 131.688 286.781 132.375C287.958 133.812 288.547 135.651 288.547 137.891C288.547 140.214 287.854 142.167 286.469 143.75C284.969 145.49 282.938 146.359 280.375 146.359C278.729 146.359 277.182 145.964 275.734 145.172C275.089 144.828 274.526 144.427 274.047 143.969V122.828ZM281.109 132.203C279.703 132.203 278.198 132.74 276.594 133.812V142.734C277.49 143.932 278.911 144.531 280.859 144.531C282.359 144.531 283.578 143.958 284.516 142.812C285.391 141.75 285.828 140.422 285.828 138.828C285.828 135.891 284.969 133.875 283.25 132.781C282.656 132.396 281.943 132.203 281.109 132.203ZM303.875 142.422L304.766 143.438C303.109 144.927 301.505 145.859 299.953 146.234C299.609 146.318 299.271 146.359 298.938 146.359C296.646 146.359 294.781 145.635 293.344 144.188C291.917 142.771 291.203 140.922 291.203 138.641C291.203 136.37 291.875 134.427 293.219 132.812C294.698 131.052 296.62 130.172 298.984 130.172C300.62 130.172 302 130.76 303.125 131.938C304.323 133.167 304.922 134.766 304.922 136.734L304.188 137.391L294 138.125C294.021 140.021 294.635 141.536 295.844 142.672C296.927 143.672 298.188 144.172 299.625 144.172C301.062 144.172 302.479 143.589 303.875 142.422ZM294.109 136.656L302.141 135.922C302.068 134.193 301.401 133.005 300.141 132.359C299.693 132.13 299.12 132.016 298.422 132.016C297.724 132.016 297.099 132.188 296.547 132.531C296.005 132.875 295.557 133.292 295.203 133.781C294.526 134.708 294.161 135.667 294.109 136.656ZM320.062 142.422L320.953 143.438C319.297 144.927 317.693 145.859 316.141 146.234C315.797 146.318 315.458 146.359 315.125 146.359C312.844 146.359 311 145.635 309.594 144.188C308.229 142.781 307.547 140.932 307.547 138.641C307.547 136.349 308.229 134.406 309.594 132.812C311.115 131.052 313.156 130.172 315.719 130.172C317.427 130.172 318.938 130.453 320.25 131.016L319.875 134.156H318.891C318.891 133.104 318.26 132.438 317 132.156C316.604 132.062 316.052 132.016 315.344 132.016C314.635 132.016 313.938 132.182 313.25 132.516C312.573 132.839 312.016 133.271 311.578 133.812C310.714 134.885 310.281 136.198 310.281 137.75C310.281 139.656 310.75 141.182 311.688 142.328C312.698 143.557 313.995 144.172 315.578 144.172C317.172 144.172 318.667 143.589 320.062 142.422ZM323.672 138.406C323.672 137.208 323.875 136.094 324.281 135.062C324.698 134.031 325.26 133.156 325.969 132.438C327.427 130.927 329.224 130.172 331.359 130.172C333.839 130.172 335.776 130.906 337.172 132.375C338.495 133.781 339.156 135.62 339.156 137.891C339.156 140.422 338.406 142.479 336.906 144.062C335.448 145.594 333.646 146.359 331.5 146.359C329.052 146.359 327.115 145.604 325.688 144.094C324.344 142.677 323.672 140.781 323.672 138.406ZM327.672 133.75C327.255 134.281 326.938 134.906 326.719 135.625C326.51 136.344 326.406 137.125 326.406 137.969C326.406 138.802 326.5 139.62 326.688 140.422C326.885 141.214 327.188 141.917 327.594 142.531C328.49 143.865 329.781 144.531 331.469 144.531C333.052 144.531 334.281 144.01 335.156 142.969C336.021 141.948 336.453 140.568 336.453 138.828C336.453 135.745 335.573 133.672 333.812 132.609C333.156 132.214 332.38 132.016 331.484 132.016C330.589 132.016 329.833 132.172 329.219 132.484C328.604 132.786 328.089 133.208 327.672 133.75ZM351.812 132.203C349.99 132.203 348.297 132.755 346.734 133.859V144.344L348.719 144.703V146H342.188V144.703L344.203 144.344V132.969L342.188 132.609V131.312L346.734 130.172V132.203C348.693 130.849 350.536 130.172 352.266 130.172C354.432 130.172 355.839 130.859 356.484 132.234C357.547 131.495 358.583 130.969 359.594 130.656C360.604 130.333 361.464 130.172 362.172 130.172C363.755 130.172 364.932 130.568 365.703 131.359C366.484 132.151 366.875 133.365 366.875 135V144.344L368.844 144.703V146H362.344V144.703L364.328 144.344V135C364.328 134.062 364.052 133.344 363.5 132.844C363.031 132.417 362.448 132.203 361.75 132.203C359.958 132.203 358.318 132.74 356.828 133.812C356.88 134.333 356.906 134.729 356.906 135V144.344L358.703 144.703V146H352.516V144.703L354.344 144.344V135C354.344 134.062 354.083 133.344 353.562 132.844C353.115 132.417 352.531 132.203 351.812 132.203ZM383.875 142.422L384.766 143.438C383.109 144.927 381.505 145.859 379.953 146.234C379.609 146.318 379.271 146.359 378.938 146.359C376.646 146.359 374.781 145.635 373.344 144.188C371.917 142.771 371.203 140.922 371.203 138.641C371.203 136.37 371.875 134.427 373.219 132.812C374.698 131.052 376.62 130.172 378.984 130.172C380.62 130.172 382 130.76 383.125 131.938C384.323 133.167 384.922 134.766 384.922 136.734L384.188 137.391L374 138.125C374.021 140.021 374.635 141.536 375.844 142.672C376.927 143.672 378.188 144.172 379.625 144.172C381.062 144.172 382.479 143.589 383.875 142.422ZM374.109 136.656L382.141 135.922C382.068 134.193 381.401 133.005 380.141 132.359C379.693 132.13 379.12 132.016 378.422 132.016C377.724 132.016 377.099 132.188 376.547 132.531C376.005 132.875 375.557 133.292 375.203 133.781C374.526 134.708 374.161 135.667 374.109 136.656ZM389.062 145.891C388.719 145.568 388.474 145.292 388.328 145.062C388.182 144.823 388.109 144.604 388.109 144.406C388.109 144.208 388.172 143.995 388.297 143.766C388.432 143.526 388.599 143.302 388.797 143.094C389.266 142.604 389.703 142.359 390.109 142.359C390.536 142.359 390.911 142.531 391.234 142.875C391.828 143.479 392.125 143.984 392.125 144.391C392.125 144.776 391.958 145.135 391.625 145.469C391.031 146.062 390.526 146.359 390.109 146.359C389.755 146.359 389.406 146.203 389.062 145.891Z" fill="black"/>
</svg>
